<?xml version="1.0" encoding="iso-8859-1"?>
<!DOCTYPE svg PUBLIC "-//W3C//DTD SVG 1.1//EN" "http://www.w3.org/Graphics/SVG/1.1/DTD/svg11.dtd">
<svg fill="#000000" height="800px" width="800px" version="1.1" id="Capa_1" xmlns="http://www.w3.org/2000/svg" xmlns:xlink="http://www.w3.org/1999/xlink" 
   viewBox="0 0 474.732 474.732" xml:space="preserve">
<g>
  <path d="M240.05,163.931c-61.156,0-110.91,49.754-110.91,110.91s49.754,110.91,110.91,110.91c61.156,0,110.91-49.754,110.91-110.91
    S301.206,163.931,240.05,163.931z M331.012,278.841h11.863c-0.975,25.362-11.168,48.398-27.322,65.847l-8.354-8.355
    c-1.562-1.562-4.094-1.563-5.657,0c-1.563,1.562-1.563,4.095,0,5.656l8.355,8.355c-17.449,16.153-40.484,26.347-65.846,27.321
    v-11.862c0-2.209-1.791-4-4-4s-4,1.791-4,4v11.862c-25.362-0.975-48.398-11.168-65.846-27.322l8.355-8.355
    c1.562-1.562,1.562-4.095,0-5.656c-1.562-1.563-4.094-1.563-5.657,0l-8.354,8.355c-16.153-17.449-26.347-40.484-27.322-65.847
    h11.863c2.209,0,4-1.791,4-4s-1.791-4-4-4h-11.863c0.975-25.362,11.168-48.398,27.321-65.846l8.355,8.355
    c0.781,0.781,1.805,1.172,2.829,1.172c1.023,0,2.047-0.391,2.828-1.172c1.563-1.562,1.563-4.095,0-5.656l-8.355-8.356
    c17.449-16.154,40.485-26.347,65.847-27.322v11.863c0,2.209,1.791,4,4,4s4-1.791,4-4v-11.863
    c25.362,0.975,48.398,11.169,65.847,27.322l-8.355,8.356c-1.562,1.562-1.562,4.095,0,5.656c0.781,0.781,1.804,1.172,2.828,1.172
    s2.047-0.391,2.829-1.172l8.355-8.355c16.153,17.449,26.347,40.484,27.321,65.846h-11.863c-2.209,0-4,1.791-4,4
    S328.803,278.841,331.012,278.841z"/>
  <path d="M247.812,258.323c-9.108-4.281-20-0.353-24.281,8.756c-2.074,4.412-2.305,9.368-0.651,13.954
    c1.654,4.586,4.995,8.254,9.407,10.327c2.467,1.159,5.104,1.743,7.751,1.743c2.087,0,4.181-0.363,6.203-1.092
    c4.586-1.654,8.254-4.995,10.327-9.407c2.074-4.412,2.305-9.367,0.651-13.954C255.565,264.064,252.224,260.396,247.812,258.323z
    M249.328,279.202c-1.165,2.479-3.225,4.354-5.801,5.283c-2.576,0.931-5.359,0.8-7.838-0.365s-4.355-3.225-5.284-5.801
    c-0.929-2.575-0.799-5.359,0.366-7.838c1.744-3.711,5.442-5.891,9.294-5.891c1.458,0,2.939,0.313,4.344,0.973
    c2.478,1.165,4.354,3.225,5.284,5.801C250.622,273.94,250.492,276.724,249.328,279.202z"/>
  <path d="M301.184,299.152l-31.585-14.843c2.096-6.498,1.998-13.465-0.357-19.994c-1.647-4.568-4.285-8.594-7.691-11.859
    l4.684-9.966l10.68,0.464c1.075,0.056,2.117-0.34,2.901-1.07c0.785-0.732,1.242-1.748,1.271-2.82l1.201-45.489
    c0.042-1.588-0.86-3.05-2.297-3.726c-1.438-0.676-3.139-0.438-4.334,0.609l-34.253,29.956c-0.807,0.706-1.297,1.707-1.36,2.777
    c-0.063,1.071,0.308,2.122,1.027,2.917l7.173,7.927l-4.684,9.966c-4.686-0.538-9.469,0.001-14.036,1.648
    c-6.528,2.355-11.954,6.724-15.62,12.485l-31.588-14.845c-2-0.941-4.382-0.081-5.321,1.919c-0.939,1.999-0.081,4.382,1.919,5.321
    l31.588,14.844c-2.096,6.498-1.998,13.466,0.356,19.994c1.647,4.568,4.285,8.594,7.691,11.859l-4.683,9.966l-10.68-0.464
    c-1.077-0.056-2.117,0.34-2.901,1.07c-0.785,0.732-1.242,1.748-1.271,2.82l-1.201,45.488c-0.042,1.588,0.859,3.05,2.297,3.726
    c0.543,0.255,1.124,0.38,1.7,0.38c0.95,0,1.89-0.338,2.634-0.989l34.253-29.955c0.807-0.706,1.297-1.707,1.36-2.777
    c0.063-1.071-0.308-2.122-1.027-2.917l-7.172-7.927l4.687-9.974c1.154,0.13,2.308,0.198,3.458,0.198
    c10.386,0,20.39-5.246,26.186-14.328l31.594,14.848c0.55,0.259,1.128,0.381,1.699,0.381c1.502,0,2.941-0.851,3.623-2.3
    C304.042,302.475,303.183,300.092,301.184,299.152z M263.921,234.383c-0.127-0.007-0.252,0.004-0.378,0.01l10.228-21.37
    l-0.575,21.763L263.921,234.383z M266.988,208.666l-10.712,22.381c-0.097-0.139-0.199-0.276-0.314-0.404l-6.23-6.885
    L266.988,208.666z M256.3,235.699l3.5,1.675l-4.825,10.268c-0.565-0.309-1.138-0.608-1.726-0.885
    c-0.589-0.277-1.186-0.528-1.785-0.766L256.3,235.699z M216.983,315.249l-10.68,22.313l0.598-22.662
    C206.902,314.899,216.719,315.29,216.983,315.249z M213.811,340.406l10.264-21.445c0.022,0.026,0.04,0.055,0.063,0.081l6.229,6.885
    L213.811,340.406z M223.607,314.394l-3.5-1.675l5.017-10.676c0.565,0.309,1.138,0.608,1.727,0.885
    c0.59,0.277,1.186,0.53,1.784,0.767L223.607,314.394z M260.895,284.639c-5.402,11.495-19.148,16.45-30.642,11.049
    c-5.568-2.616-9.784-7.245-11.871-13.032c-2.087-5.788-1.795-12.041,0.821-17.609c2.617-5.567,7.245-9.783,13.033-11.87
    c2.551-0.921,5.193-1.378,7.827-1.378c3.341,0,6.669,0.736,9.782,2.199c5.568,2.616,9.784,7.245,11.871,13.032
    C263.803,272.817,263.511,279.07,260.895,284.639z"/>
  <path d="M399.131,180.7c-3.07-19.609-7.958-42.119-18.592-42.119c-5.586,0-12.748,4.787-18.592,42.119
    c-1.305,8.335-2.411,17.589-3.313,27.51c-4.095-7.293-8.812-14.121-14.067-20.433c12.661-20.682,25.966-54.214,21.523-100.22
    c-0.2-2.066-1.913-3.643-4.024-3.615c-31.985,0.339-59.729,13.411-82.462,38.856c-5.017,5.621-9.743,11.819-14.079,18.45
    c-2.143-0.407-4.304-0.753-6.476-1.057v-14.298c4.704-4.354,7.91-10.298,8.764-16.97C286.521,98.745,298.049,79.44,298.049,58
    c0-31.981-26.019-58-58-58s-58,26.019-58,58c0,21.441,11.529,40.747,30.239,50.924c0.854,6.669,4.059,12.612,8.761,16.965v14.295
    c-16.611,2.333-32.269,7.673-46.402,15.459l-38.038-43.875c1.784-2.579,2.835-5.701,2.835-9.067
    c0-8.814-7.171-15.985-15.985-15.985c-8.814,0-15.985,7.171-15.985,15.985s7.171,15.985,15.985,15.985
    c2.552,0,4.957-0.616,7.1-1.684l37.086,42.778c-2.796,1.766-5.524,3.63-8.178,5.589l-19.632-9.078
    c0.585-3.168,0.206-6.433-1.145-9.433v-0.001c-3.621-8.035-13.103-11.629-21.141-8.008c-3.893,1.754-6.87,4.919-8.383,8.912
    s-1.379,8.336,0.375,12.229c1.754,3.894,4.918,6.87,8.912,8.383c1.841,0.697,3.757,1.045,5.669,1.045
    c2.234,0,4.462-0.475,6.56-1.419c2.289-1.031,4.248-2.56,5.792-4.448l15.957,7.379c-29.561,24.965-48.372,62.28-48.372,103.912
    c0,17.118,3.188,33.504,8.987,48.606c-10.232,9.608-47.281,49.539-43.251,120.671c0.118,2.073,1.802,3.712,3.878,3.771
    c1.151,0.033,2.293,0.051,3.435,0.05c27.832-0.001,52.767-9.93,74.268-29.556c1.962,18.467,7.801,36.684,17.424,54.269
    c0.722,1.32,2.089,2.081,3.511,2.081c0.54,0,1.088-0.11,1.611-0.341c26.549-11.697,45.087-33.83,53.783-64.127
    c4.067,0.368,8.183,0.566,12.344,0.566c49.592,0,94.68-26.798,118.585-69.365c0.902,9.922,2.008,19.179,3.313,27.515
    c3.07,19.609,7.957,42.119,18.592,42.119c5.586,0,12.748-4.787,18.592-42.119c3.941-25.179,6.112-58.612,6.112-94.141
    S403.072,205.879,399.131,180.7z"/>
</g>
</svg>